PathFileType	4	(X/Y/Z)	/Users/itak/Documents/Research/Walk-IL/dataset/trc/00169_00008.trc
DataRate	CameraRate	NumFrames	NumMarkers	Units	OrigDataRate	OrigDataStartFrame	OrigNumFrames
100.000000	100.000000	4	54	mm	100.000000	413	551
Frame#	Time	RPSI			LPSI			L3			STRN			T10			C7			CLAV			RBAK			LBAK			LSHO			LUPA			LAEL			LAOL			LWTS			LWPS			LFRA			LIFD			LHPS			LHTS			RSHO			RUPA			RAEL			RAOL			RWTS			RWPS			RFRA			RIFD			RHTS			RHPS			RBHD			LFHD			RFHD			LBHD			LHIP			RHIP			RASI			LASI			LKNE			LTHI			LANK			LTIP			LTOE			LMT1			LMT5			LHEE			RKNE			RTHI			RANK			RTIP			RTOE			RMT1			RMT5			RHEE			*53			
		X1	Y1	Z1	X2	Y2	Z2	X3	Y3	Z3	X4	Y4	Z4	X5	Y5	Z5	X6	Y6	Z6	X7	Y7	Z7	X8	Y8	Z8	X9	Y9	Z9	X10	Y10	Z10	X11	Y11	Z11	X12	Y12	Z12	X13	Y13	Z13	X14	Y14	Z14	X15	Y15	Z15	X16	Y16	Z16	X17	Y17	Z17	X18	Y18	Z18	X19	Y19	Z19	X20	Y20	Z20	X21	Y21	Z21	X22	Y22	Z22	X23	Y23	Z23	X24	Y24	Z24	X25	Y25	Z25	X26	Y26	Z26	X27	Y27	Z27	X28	Y28	Z28	X29	Y29	Z29	X30	Y30	Z30	X31	Y31	Z31	X32	Y32	Z32	X33	Y33	Z33	X34	Y34	Z34	X35	Y35	Z35	X36	Y36	Z36	X37	Y37	Z37	X38	Y38	Z38	X39	Y39	Z39	X40	Y40	Z40	X41	Y41	Z41	X42	Y42	Z42	X43	Y43	Z43	X44	Y44	Z44	X45	Y45	Z45	X46	Y46	Z46	X47	Y47	Z47	X48	Y48	Z48	X49	Y49	Z49	X50	Y50	Z50	X51	Y51	Z51	X52	Y52	Z52	X53	Y53	Z53	X54	Y54	Z54	

414	4.13	-981.0103149414062	1066.948364257812	289.8399658203125	-983.7926635742188	1066.625732421875	165.5469818115234	-978.7535400390625	1104.450317382812	228.93310546875	-718.1694946289062	1312.087890625	216.7911682128906	-1010.470520019531	1256.97265625	219.6239471435547	-953.0626831054688	1529.545532226562	202.057373046875	-748.567626953125	1425.129150390625	205.5205841064453	-1014.198303222656	1352.4921875	314.4058532714844	-958.8772583007812	1500.463500976562	101.5219802856445	-883.0441284179688	1486.607177734375	21.95409965515137	-919.0715942382812	1351.753295898438	-46.95439529418945	-909.732666015625	1135.598510742188	-58.05108642578125	-944.4043579101562	1121.11376953125	22.55269622802734	-803.4086303710938	900.704345703125	-44.41281127929688	-890.3179321289062	882.7288208007812	-70.02067565917969	-901.7108154296875	1025.371215820312	-72.67120361328125	-789.0648803710938	715.6478881835938	-23.93014335632324	-870.5402221679688	812.2628173828125	-69.24681854248047	-797.7919311523438	822.0405883789062	-65.25691986083984	-887.572265625	1510.561157226562	382.8587646484375	-908.2550048828125	1446.690795898438	453.972900390625	-932.5226440429688	1164.830688476562	522.8651733398438	-929.988037109375	1148.061767578125	423.7546691894531	-808.1499633789062	931.503173828125	542.9295654296875	-888.5877685546875	923.4288330078125	580.2334594726562	-914.0186767578125	1095.004150390625	549.2804565429688	-808.8704833984375	742.4808349609375	533.9236450195312	-790.712890625	837.043212890625	564.4558715820312	-868.1848754882812	839.0177612304688	589.8480224609375	-886.3895263671875	1698.352172851562	274.4079895019531	-735.662841796875	1731.975463867188	121.1537170410156	-718.3629760742188	1737.78076171875	249.95361328125	-910.9942016601562	1700.210205078125	138.4945220947266	-888.0807495117188	999.9708251953125	44.89490127563477	-828.1484985351562	1019.827026367188	412.6581420898438	-745.80126953125	1047.248779296875	354.6524047851562	-759.0294189453125	1035.154418945312	95.68929290771484	-817.7555541992188	497.825439453125	77.33010101318359	-836.0467529296875	641.0950927734375	48.97433090209961	-940.8121337890625	40.2863883972168	71.2352294921875	-872.86669921875	271.9819946289062	63.60129928588867	-724.4608154296875	49.97212982177734	86.13819885253906	-768.1390380859375	45.6318473815918	136.5514831542969	-834.0878295898438	33.69791793823242	28.28817176818848	-988.9712524414062	40.30473709106445	143.77392578125	-804.0033569335938	516.5639038085938	377.535400390625	-770.39599609375	786.0052490234375	413.1836853027344	-923.1084594726562	35.66467666625977	376.9694519042969	-800.5892333984375	393.2337951660156	360.3193969726562	-704.2652587890625	58.55271148681641	344.7385864257812	-755.6730346679688	44.93808364868164	300.8024291992188	-811.9102172851562	40.11093902587891	411.724853515625	-973.2799682617188	33.4705924987793	306.9322509765625	nan	nan	nan	
415	4.14	-982.0634155273438	1067.609130859375	288.5494689941406	-985.0166015625	1067.24169921875	164.1779174804688	-979.9004516601562	1104.892211914062	227.5088958740234	-719.6851806640625	1312.3193359375	215.24365234375	-1011.947143554688	1257.128173828125	217.7910919189453	-954.7676391601562	1529.751831054688	200.4715881347656	-750.1666870117188	1425.343139648438	204.1407165527344	-1015.958435058594	1352.486450195312	312.5428771972656	-960.5260620117188	1500.904174804688	99.86128234863281	-884.3943481445312	1486.93359375	20.40744972229004	-920.0032958984375	1352.165771484375	-48.74968719482422	-910.2228393554688	1136.125366210938	-60.69862747192383	-945.2985229492188	1121.32421875	19.67964363098145	-804.3118286132812	901.06396484375	-47.36754989624023	-891.1002197265625	883.3507080078125	-73.40102386474609	-902.2149658203125	1025.958618164062	-75.65711212158203	-790.4286499023438	715.9090576171875	-27.53889656066895	-871.4628295898438	812.8495483398438	-72.80653381347656	-798.7235107421875	822.461181640625	-68.49324798583984	-889.5516357421875	1510.510375976562	381.3995971679688	-910.2645263671875	1446.374389648438	452.2781677246094	-933.9254150390625	1164.3994140625	520.7611083984375	-931.1205444335938	1147.729248046875	421.6417846679688	-808.7682495117188	931.5299072265625	540.8046875	-889.2450561523438	923.0899047851562	577.8836669921875	-915.2550048828125	1094.5791015625	547.1327514648438	-808.6727294921875	742.5275268554688	531.7477416992188	-791.0014038085938	837.1734008789062	562.347412109375	-868.4544677734375	838.7897338867188	587.533935546875	-888.6992797851562	1698.268432617188	273.3493041992188	-737.4620361328125	1732.872680664062	120.8276138305664	-720.6593627929688	1738.118408203125	249.70751953125	-912.8336181640625	1700.675170898438	137.3736572265625	-889.818359375	1000.285217285156	43.28660202026367	-829.3466186523438	1020.148193359375	410.8748168945312	-746.7490234375	1047.444091796875	352.5250244140625	-760.3591918945312	1035.19189453125	93.61431884765625	-820.9263916015625	498.2256774902344	76.94694519042969	-838.9535522460938	641.2818603515625	48.11634826660156	-940.7765502929688	40.22495269775391	71.27320861816406	-874.1687622070312	272.0600280761719	63.63656234741211	-724.47802734375	50.32207489013672	86.14211273193359	-768.0938110351562	45.76208114624023	136.5547485351562	-834.0066528320312	33.85354995727539	28.42786979675293	-988.9859619140625	39.89532089233398	143.8507995605469	-804.603759765625	516.84814453125	376.2260437011719	-771.0936889648438	786.3318481445312	411.391357421875	-923.088623046875	35.80662155151367	376.8491516113281	-801.1441650390625	393.5521240234375	359.2894592285156	-704.2896118164062	58.92291259765625	344.3179016113281	-755.7988891601562	45.09579086303711	300.4595031738281	-811.8388061523438	40.53202438354492	411.413818359375	-973.2947998046875	33.44435501098633	306.9154052734375	nan	nan	nan	
416	4.15	-983.1012573242188	1068.32177734375	287.3395690917969	-986.2943725585938	1067.951904296875	162.9300994873047	-981.06591796875	1105.455200195312	226.2075500488281	-721.1863403320312	1312.68896484375	213.6402740478516	-1013.435424804688	1257.418212890625	216.0934295654297	-956.4373168945312	1530.065795898438	198.9346618652344	-751.7460327148438	1425.692504882812	202.6957397460938	-1017.611938476562	1352.655883789062	310.8130493164062	-962.2048950195312	1501.480590820312	98.25534820556641	-885.8142700195312	1487.4111328125	18.89462661743164	-921.0184326171875	1352.741577148438	-50.52709579467773	-910.7051391601562	1136.83203125	-63.3090934753418	-946.1812133789062	1121.710327148438	16.84042549133301	-805.07177734375	901.6498413085938	-50.32470703125	-891.7587280273438	884.1564331054688	-76.78266143798828	-902.655517578125	1026.733764648438	-78.61389923095703	-791.603759765625	716.3890991210938	-31.16377830505371	-872.229736328125	813.6224975585938	-76.37737274169922	-799.5042114257812	823.10107421875	-71.73841857910156	-891.4029541015625	1510.629028320312	379.9236755371094	-912.1036987304688	1446.266357421875	450.6063537597656	-935.1917724609375	1164.131225585938	518.5372314453125	-932.1041259765625	1147.61572265625	419.4090576171875	-809.2142333984375	931.7127685546875	538.4846801757812	-889.72607421875	922.8773803710938	575.329345703125	-916.350830078125	1094.299682617188	544.8491821289062	-808.2655639648438	742.7310180664062	529.2636108398438	-791.091064453125	837.4461059570312	559.9913330078125	-868.5445556640625	838.6884155273438	584.9692993164062	-890.9071655273438	1698.291625976562	272.2341613769531	-739.1693115234375	1733.794921875	120.4575119018555	-722.8504638671875	1738.498046875	249.4024810791016	-914.5849609375	1701.2412109375	136.2207794189453	-891.5640258789062	1000.821594238281	41.73952102661133	-830.4472045898438	1020.497497558594	409.1178283691406	-747.75927734375	1047.7392578125	350.4181518554688	-761.7686157226562	1035.507690429688	91.59889221191406	-823.6559448242188	498.7836303710938	76.35090637207031	-841.1448974609375	641.7103271484375	47.25563430786133	-940.74365234375	40.19049072265625	71.21089172363281	-875.428466796875	272.3282775878906	63.38181304931641	-724.547607421875	50.73439025878906	85.98331451416016	-768.1270141601562	46.0136833190918	136.4226684570312	-833.971435546875	33.91526412963867	28.44286155700684	-989.005615234375	39.7529411315918	143.8025970458984	-805.2732543945312	517.1663818359375	374.9269714355469	-771.8487548828125	786.6828002929688	409.6011962890625	-923.0650634765625	35.95449447631836	376.7183532714844	-801.7408447265625	393.8988342285156	358.2600402832031	-704.3426513671875	59.35092163085938	343.8491821289062	-755.9276123046875	45.30461502075195	300.0889892578125	-811.7640380859375	40.99203872680664	411.0828552246094	-973.3304443359375	33.41230773925781	306.8840026855469	nan	nan	nan	
417	4.16	-984.133544921875	1069.046997070312	286.1803588867188	-987.6021728515625	1068.684448242188	161.7726440429688	-982.2443237304688	1106.081909179688	225.0019073486328	-722.6708374023438	1313.175415039062	211.9892425537109	-1014.9267578125	1257.790893554688	214.5340576171875	-958.0823974609375	1530.448852539062	197.4520416259766	-753.31201171875	1426.159545898438	201.1894073486328	-1019.146484375	1352.962280273438	309.2281188964844	-963.905517578125	1502.151123046875	96.71603393554688	-887.3152465820312	1488.029418945312	17.43002700805664	-922.129638671875	1353.48046875	-52.29324722290039	-911.206298828125	1137.71142578125	-65.87493896484375	-947.0695190429688	1122.267333984375	14.04534339904785	-805.7029418945312	902.4584350585938	-53.27281951904297	-892.2899780273438	885.1387939453125	-80.16188049316406	-903.0496215820312	1027.695556640625	-81.5360107421875	-792.5762939453125	717.0870971679688	-34.77338027954102	-872.8348999023438	814.5765380859375	-79.95086669921875	-800.1253051757812	823.9605712890625	-74.97470092773438	-893.1240844726562	1510.898193359375	378.43115234375	-913.76611328125	1446.362670898438	448.9716491699219	-936.3387451171875	1164.02099609375	516.210205078125	-932.9532470703125	1147.72021484375	417.0708618164062	-809.4952392578125	932.0474243164062	535.9854125976562	-890.039306640625	922.7791748046875	572.5802612304688	-917.3226928710938	1094.159301757812	542.4446411132812	-807.6533203125	743.0891723632812	526.4602661132812	-790.9799194335938	837.8544921875	557.391357421875	-868.4634399414062	838.6978759765625	582.1526489257812	-893.0244140625	1698.391235351562	271.0780639648438	-740.8015747070312	1734.713256835938	120.0419311523438	-724.9453125	1738.890747070312	249.0388336181641	-916.2610473632812	1701.876586914062	135.0468902587891	-893.2691040039062	1001.496032714844	40.24760437011719	-831.4894409179688	1020.86572265625	407.3975524902344	-748.8405151367188	1048.129516601562	348.3787536621094	-763.218994140625	1036.055297851562	89.66949462890625	-826.1162719726562	499.4115905761719	75.54109191894531	-842.8026733398438	642.2840576171875	46.3690299987793	-940.73095703125	40.12561798095703	71.05581665039062	-876.6981811523438	272.6886901855469	62.86647796630859	-724.66796875	51.20544052124023	85.68611145019531	-768.229736328125	46.37040328979492	136.1750640869141	-833.9852905273438	33.88228988647461	28.33899307250977	-989.0507202148438	39.76350784301758	143.6448974609375	-806.0222778320312	517.5098876953125	373.6683654785156	-772.6961059570312	787.0493774414062	407.8679809570312	-923.0386352539062	36.1029052734375	376.5805053710938	-802.3859252929688	394.2669677734375	357.2589111328125	-704.4276123046875	59.82861709594727	343.3504943847656	-756.05029296875	45.55120086669922	299.7084655761719	-811.6973266601562	41.48161697387695	410.7439270019531	-973.3873291015625	33.37688827514648	306.8359375	nan	nan	nan	
